# xmcd
#
# Track frame offsets: 
#        150
#        17339
#        32763
#        50824
#        65093
#        79126
#
# Disc length: 1277 seconds
#
# Revision: 0
# Processed by: cddbd v1.5.2PL0 Copyright (c) Steve Scherf et al.
# Submitted via: ExactAudioCopyFreeDBPlugin 1.0
#
DISCID=4904fb06
DTITLE=The Dirt Drifters - The Dirt Drifters
DYEAR=2008
DGENRE=Country
TTITLE0=Trouble
TTITLE1=There She Goes
TTITLE2=Guys Like Me
TTITLE3=It Takes a Man
TTITLE4=Damn Love
TTITLE5=Lonely and Me
EXTD=
EXTT0=
EXTT1=
EXTT2=
EXTT3=
EXTT4=
EXTT5=
PLAYORDER=
